<?xml version="1.0" encoding="UTF-8" standalone="no"?>
<svg width="257px" height="59px" viewBox="0 0 257 59" version="1.1" xmlns="http://www.w3.org/2000/svg" xmlns:xlink="http://www.w3.org/1999/xlink" xmlns:sketch="http://www.bohemiancoding.com/sketch/ns">
    <!-- Generator: Sketch 3.0.4 (8053) - http://www.bohemiancoding.com/sketch -->
    <title>about_tools_title</title>
    <desc>Created with Sketch.</desc>
    <defs></defs>
    <g id="Page-1" stroke="none" stroke-width="1" fill="none" fill-rule="evenodd" sketch:type="MSPage">
        <path d="M28.68,37.8 L28.68,43.4 C28.68,46.88 29.76,47.48 36.08,47.48 C42.56,47.48 44.52,47.08 45.6,45.6 C46.36,44.48 46.56,43.56 47.16,38.16 C45.24,37.68 44.52,37.4 42.88,36.48 C42.72,40.36 42.48,42.04 42,42.72 C41.56,43.32 40.28,43.52 36.92,43.52 C35.16,43.52 33.88,43.4 33.44,43.2 C33.12,43.04 33,42.8 33,42.32 L33,35.76 C36.12,34.16 40.48,31.56 43.2,29.68 C44.76,28.56 44.76,28.56 45.96,27.84 L42.52,24.64 C42,25.16 39.72,26.96 39.04,27.4 C36.48,29.08 35.28,29.8 33,31.04 L33,27 C33,25.32 33.04,24.28 33.2,22.96 L28.44,22.96 C28.64,24.24 28.68,25.16 28.68,27.16 L28.68,33.28 C27.04,34.04 25.96,34.48 23.12,35.56 L25.72,39.08 L28.68,37.8 Z M24.52,15.04 L24.52,14 C24.52,13.16 24.56,12.4 24.72,11.64 L20.12,11.64 C20.24,12.4 20.32,13.16 20.32,14 L20.32,15.04 L15.76,15.04 C13.72,15.04 12.4,14.96 11.08,14.8 L11.08,19.28 C12.32,19.12 13.52,19.08 15.76,19.08 L20.32,19.08 L20.32,20 C20.32,20.6 20.28,21.36 20.24,21.76 C20.2,21.92 20.2,21.92 20.2,22 L20.04,21.92 C18.68,26.24 14.52,31.16 10,33.92 C11.12,35.32 11.8,36.56 12.32,38.12 C14.56,36.52 15.84,35.32 17.28,33.56 C17.2,35 17.16,36.56 17.16,37.84 L17.16,43.64 C17.16,45.52 17.12,46.52 16.92,48.12 L21.76,48.12 C21.56,46.56 21.48,45.24 21.48,43.64 L21.48,28.64 C22.44,27.16 22.88,26.44 23.8,24.64 C24.04,24.16 24.08,24.08 24.32,23.76 L20.6,22.16 L24.64,22.16 C24.56,21.52 24.52,20.96 24.52,19.92 L24.52,19.08 L32.92,19.08 L32.92,20.08 C32.92,20.92 32.88,21.48 32.8,22.16 L37.28,22.16 C37.16,21.4 37.12,20.88 37.12,20 L37.12,19.08 L42.36,19.08 C44.52,19.08 45.76,19.12 47,19.28 L47,14.8 C45.72,14.96 44.44,15.04 42.36,15.04 L37.12,15.04 L37.12,14 C37.12,13.16 37.2,12.36 37.32,11.64 L32.72,11.64 C32.88,12.44 32.92,13.2 32.92,14 L32.92,15.04 L24.52,15.04 Z M67.12,42.08 C67.08,43.4 66.88,43.84 66.12,44.36 L67.16,47 C68.96,46.4 69.08,46.36 71.68,45.56 C71.72,46.32 71.76,46.6 71.8,47.52 L74.48,46.92 C73.92,42.96 73.52,40.88 72.68,37.72 L70.28,38.36 C70.8,40.36 71,41.08 71.24,42.44 C71,42.52 71,42.52 70.24,42.8 L70.24,16.72 C70.52,16.68 70.76,16.6 71.48,16.44 L71.56,21 C71.6,24.48 71.92,29.6 72.28,32.64 C73,38.72 74.36,43.68 76.48,48 C77.16,46.56 77.96,45.64 79.2,44.84 C77.04,41.4 76,37.88 75.28,31.44 C74.84,27.12 74.8,26.12 74.68,15.52 C74.76,15.52 74.8,15.48 74.84,15.48 C75.24,15.32 75.52,15.24 75.56,15.24 C76.16,15.04 76.16,15.04 76.44,14.96 L73.84,11.44 C72.12,12.6 66.68,13.88 62.56,14.08 C62.76,16 62.8,18.36 62.8,23.08 C62.8,25.08 62.68,28.28 62.48,31.16 C62.2,35.04 61.92,37.08 61.4,39.24 C60.8,41.44 59.88,43.2 58.2,45.12 C59.8,46.2 60.4,46.84 61.2,48.2 C65,42.08 65.96,36.48 65.96,20.04 C65.96,19.32 65.96,18.6 65.92,17.4 L67.12,17.24 L67.12,42.08 Z M79.68,30.12 L79.68,34.68 C78.12,34.68 77.36,34.6 76.64,34.48 L76.64,38.64 C77.48,38.52 78.44,38.48 79.68,38.48 L79.68,44.16 C79.68,46.08 79.64,47.12 79.48,48.2 L83.6,48.2 C83.44,47.16 83.36,45.92 83.36,44.08 L83.36,38.48 L84.08,38.48 C85.68,38.48 86.52,38.52 87.44,38.64 L87.44,34.48 C86.72,34.6 85.84,34.68 84.12,34.68 L83.36,34.68 L83.36,30.12 L84.28,30.12 C85.84,30.12 86.68,30.16 87.6,30.28 L87.6,26.2 C86.92,26.36 86.68,26.36 84.68,26.4 C85.36,24.48 85.64,23.28 86.28,20.04 L82.88,19.44 C82.68,22.24 82.24,24.56 81.56,26.4 L79.2,26.4 L77.92,26.4 L80.56,25.72 C80.24,23.04 79.96,21.48 79.4,19.48 L76.36,20.28 C76.96,22.08 77.2,23.52 77.52,26.36 C76.8,26.36 76.4,26.32 75.92,26.2 L75.92,30.28 C76.8,30.16 77.68,30.12 79.2,30.12 L79.68,30.12 Z M78.96,15.48 C77.32,15.48 76.4,15.44 75.64,15.32 L75.64,19.4 C76.6,19.28 77.44,19.24 79,19.24 L83.8,19.24 C85.4,19.24 86.36,19.28 87.28,19.4 L87.28,15.32 C86.56,15.44 85.68,15.48 83.84,15.48 C82.76,12.96 82.64,12.72 81.68,11 L77.96,12.36 C78.76,13.8 79,14.28 79.52,15.48 L78.96,15.48 Z M53.96,15.48 C52.32,15.48 51.44,15.44 50.76,15.32 L50.76,19.4 C51.68,19.28 52.44,19.24 54,19.24 L58.68,19.24 C60.24,19.24 61,19.28 61.92,19.4 L61.92,15.32 C61.24,15.44 60.32,15.48 58.8,15.48 C57.8,13.12 57.52,12.52 56.6,10.88 L53,12.24 C53.84,13.8 54.12,14.4 54.6,15.48 L53.96,15.48 Z M57.8,19.52 C57.56,22.04 57.2,23.76 56.32,26.24 L53.52,26.24 C52.12,26.24 51.2,26.2 50.36,26.04 L50.36,30.16 C51.28,30 52.2,29.96 53.52,29.96 L54.56,29.96 C54.56,32.48 54.56,32.84 54.44,34.56 L53.72,34.56 C52.08,34.56 51.2,34.52 50.48,34.36 L50.48,38.4 C51.36,38.28 52.24,38.24 53.72,38.24 L54.04,38.24 C53.44,41.4 52.32,43.4 50.24,45.04 C51.76,46.2 52.56,47.08 53.08,48.2 C55.72,45.4 56.84,43.04 57.64,38.24 L57.92,38.24 C59.48,38.24 60.32,38.28 61.24,38.4 L61.24,34.36 C60.52,34.52 59.72,34.56 58,34.56 C58.12,32.96 58.16,31.8 58.2,29.96 L58.64,29.96 C59.96,29.96 60.76,30 61.68,30.12 L61.68,26.04 C60.92,26.2 60.68,26.2 59.24,26.24 C60.2,23.92 60.28,23.64 61.16,20.12 L57.8,19.52 Z M51.52,20.32 C52.16,22.2 52.4,23.28 52.68,25.96 L55.72,25.36 C55.52,23.08 55.28,21.84 54.68,19.52 L51.52,20.32 Z M121.76,33.2 C123.8,33.2 125.2,33.28 126.56,33.44 L126.56,29 C125.44,29.16 124.36,29.2 121.96,29.2 L110.88,29.2 L110.88,28.84 C110.88,27.52 110.92,26.8 111.08,25.88 L106.2,25.88 C106.36,26.84 106.4,27.52 106.4,28.8 L106.4,29.2 L96,29.2 C93.56,29.2 92.48,29.16 91.32,29 L91.32,33.44 C92.64,33.28 93.96,33.2 96.12,33.2 L103.8,33.2 C100.76,36.8 96.08,39.92 90.2,42.24 C91.44,43.48 92.32,44.84 92.96,46.36 C95.84,45 97.88,43.8 100.08,42.12 C102.96,39.92 104.84,38.08 106.52,35.68 C106.44,37.08 106.4,38.12 106.4,39.36 L106.4,44.32 C106.4,46.04 106.32,46.96 106.12,48.16 L111.12,48.16 C110.96,46.92 110.88,45.88 110.88,44.32 L110.88,39.28 C110.88,38.56 110.84,37.24 110.76,35.64 C112.44,37.92 113.88,39.4 116.28,41.32 C118.6,43.16 121.72,45.04 124.96,46.6 C125.88,44.68 126.4,43.84 127.68,42.28 C124.28,41.08 121.36,39.6 118.72,37.76 C116.88,36.48 114.64,34.6 113.4,33.2 L121.76,33.2 Z M121.28,11.36 C118.8,12.28 116.44,12.88 113.52,13.28 C108.4,13.92 101.36,14.4 96.24,14.4 C95.16,14.4 94.2,14.36 92.28,14.32 C93.28,15.92 93.68,16.96 94.08,18.72 C98.56,18.56 100.72,18.44 103.24,18.32 C106.76,18.08 113.24,17.4 116.28,16.92 C118.08,16.6 121.96,15.8 124.76,15.08 L121.28,11.36 Z M102.24,26.16 C100.76,22.64 100.04,21.28 98.48,19.08 L94.68,20.76 C96.4,23.36 97.52,25.6 98.28,28.08 L102.24,26.16 Z M111.92,24.16 C111.08,21.72 110.4,20.24 109.12,17.96 L105.28,19.48 C106.56,21.6 107.16,23.04 107.92,25.64 L111.92,24.16 Z M118.6,28.4 C120.76,25.2 122.04,22.96 123.96,18.96 L119.84,17.12 C118.4,20.8 117.04,23.36 114.76,26.68 L118.6,28.4 Z M152.24,20 L152.24,18.2 L161.88,18.2 C163.4,18.2 164.2,18.24 165.2,18.36 L165.2,14.64 C164.12,14.8 163.08,14.84 161.32,14.84 L153.8,14.84 C153.36,13.4 152.76,12.08 152.08,11 L147.72,12 C148.32,12.92 148.32,12.92 149.12,14.84 L141,14.84 C141.68,13.96 141.68,13.96 143.2,11.48 L138.56,10.72 C138.28,11.52 137.84,12.44 137.28,13.32 C135.24,16.56 133.08,18.84 129.96,21.04 C130.88,22.32 131.36,23.24 132.04,24.96 C133.68,23.68 134.56,22.88 135.72,21.48 C135.64,22.6 135.6,23.68 135.6,24.96 L135.6,29.92 C135.6,31.2 135.56,32.24 135.44,33.12 C136.4,33.04 137.28,33 138.84,33 L146.76,33 L146.76,35.12 L135.52,35.12 C133.08,35.12 132.08,35.08 131,34.92 L131,38.96 C132.32,38.76 133.48,38.72 135.52,38.72 L143.24,38.72 C142.04,39.72 140.84,40.4 138.92,41.28 C136.12,42.56 133.68,43.28 130.28,43.84 C131.2,45.08 131.88,46.32 132.52,47.84 C135.36,47.12 137.44,46.4 139.64,45.36 C142.84,43.88 144.84,42.52 146.88,40.48 C146.8,41.44 146.76,42.2 146.76,43.12 L146.76,45.48 C146.76,46.8 146.72,47.44 146.52,48.32 L151.28,48.32 C151.08,47.52 151.04,46.92 151.04,45.44 L151.04,43.12 C151.04,42.68 151,41.68 150.92,40.48 C152.88,42.36 154.6,43.56 157.4,44.96 C159.88,46.2 162.24,47.04 165.4,47.88 C165.56,47.56 165.68,47.28 165.76,47.12 C166,46.56 166.16,46.2 166.2,46.12 C166.56,45.36 166.88,44.84 167.68,43.76 C162.6,42.88 157.4,40.88 154.48,38.72 L162.4,38.72 C164.44,38.72 165.64,38.76 166.96,38.96 L166.96,34.92 C165.88,35.08 164.84,35.12 162.4,35.12 L151.04,35.12 L151.04,33 L161.6,33 C163.44,33 164.36,33.04 165.44,33.2 L165.44,29.52 C164.4,29.68 163.4,29.72 161.56,29.72 L152.24,29.72 L152.24,27.92 L159.84,27.92 C161.96,27.92 162.56,27.96 163.64,28.08 L163.64,24.68 C162.4,24.84 161.84,24.88 159.84,24.88 L152.24,24.88 L152.24,23.04 L159.84,23.04 C162,23.04 162.44,23.04 163.64,23.2 L163.64,19.8 C162.44,19.96 161.8,20 159.84,20 L152.24,20 Z M148.08,20 L139.76,20 L139.76,18.2 L148.08,18.2 L148.08,20 Z M148.08,23.04 L148.08,24.88 L139.76,24.88 L139.76,23.04 L148.08,23.04 Z M148.08,27.92 L148.08,29.72 L139.76,29.72 L139.76,27.92 L148.08,27.92 Z M191.12,19.2 L199.92,19.2 C202.08,19.2 203.4,19.28 205.04,19.44 L205.04,14.72 C203.52,14.88 202.24,14.96 199.88,14.96 L178.36,14.96 C175.92,14.96 174.56,14.88 173.16,14.72 L173.16,19.44 C174.72,19.28 176.12,19.2 178.32,19.2 L186.4,19.2 L186.4,40.6 L176.4,40.6 C173.96,40.6 172.52,40.52 170.88,40.32 L170.88,45.16 C172.56,44.96 174.24,44.88 176.32,44.88 L201.84,44.88 C204,44.88 205.8,44.96 207.28,45.16 L207.28,40.32 C205.68,40.52 204.16,40.6 201.84,40.6 L191.12,40.6 L191.12,19.2 Z M241.64,36.08 L241.64,16.92 C241.64,14.84 241.68,13.84 241.84,12.68 C240.56,12.8 239.52,12.84 237.76,12.84 L220.44,12.84 C218.64,12.84 217.36,12.8 216.12,12.68 C216.28,13.88 216.32,14.8 216.32,16.8 L216.32,36.08 L215.6,36.08 C214,36.08 212.2,35.96 211,35.84 L211,40.28 C212.24,40.12 213.88,40.04 215.56,40.04 L222.24,40.04 C219.12,42.4 216.72,43.36 210.76,44.56 C212,46 212.48,46.72 213.28,48.44 C219.2,46.96 221.6,45.8 226.48,42.16 L223.36,40.04 L234.04,40.04 L231.68,42.44 C236.6,44.4 238.92,45.6 243.48,48.64 L246.28,44.88 C242.28,42.68 239.64,41.48 235.72,40.04 L242.68,40.04 C244.16,40.04 245.8,40.12 247.2,40.28 L247.2,35.84 C246.16,35.96 244.24,36.08 242.52,36.08 L241.64,36.08 Z M237.44,36.08 L220.52,36.08 L220.52,33.84 L237.44,33.84 L237.44,36.08 Z M237.44,16.52 L237.44,18.84 L220.52,18.84 L220.52,16.52 L237.44,16.52 Z M237.44,22.28 L237.44,24.56 L220.52,24.56 L220.52,22.28 L237.44,22.28 Z M237.44,28 L237.44,30.32 L220.52,30.32 L220.52,28 L237.44,28 Z" id="花瓣采集工具" fill="#FFFFFF" sketch:type="MSShapeGroup"></path>
    </g>
</svg>