<?xml version="1.0" encoding="UTF-8" standalone="no"?>
<svg width="415px" height="65px" viewBox="0 0 415 65" version="1.1" xmlns="http://www.w3.org/2000/svg" xmlns:xlink="http://www.w3.org/1999/xlink" xmlns:sketch="http://www.bohemiancoding.com/sketch/ns">
    <!-- Generator: Sketch 3.0.4 (8053) - http://www.bohemiancoding.com/sketch -->
    <title>about_tools_subtitle</title>
    <desc>Created with Sketch.</desc>
    <defs></defs>
    <g id="Page-1" stroke="none" stroke-width="1" fill="none" fill-rule="evenodd" sketch:type="MSPage">
        <path d="M14.878,10.844 C13.87,13.49 12.178,16.1 10.414,17.756 C10.702,18.152 11.17,19.052 11.332,19.448 C11.926,18.854 12.52,18.152 13.078,17.396 L13.078,27.494 L14.662,27.494 L14.662,14.984 C15.346,13.814 15.94,12.572 16.444,11.366 L14.878,10.844 Z M17.884,19.52 L17.884,17.234 L20.638,17.234 L20.638,18.962 L20.638,19.52 L17.884,19.52 Z M25.138,17.234 L25.138,19.52 L22.294,19.52 L22.294,18.962 L22.294,17.234 L25.138,17.234 Z M26.74,20.906 L26.74,15.848 L22.294,15.848 L22.294,14.3 L27.262,14.3 L27.262,12.77 L22.294,12.77 L22.294,10.988 L20.638,10.988 L20.638,12.77 L15.904,12.77 L15.904,14.3 L20.638,14.3 L20.638,15.848 L16.354,15.848 L16.354,20.906 L20.53,20.906 C20.422,21.77 20.188,22.598 19.72,23.354 C18.892,22.742 18.208,22.022 17.704,21.194 L16.336,21.626 C16.966,22.724 17.776,23.66 18.748,24.452 C17.956,25.118 16.804,25.694 15.202,26.072 C15.562,26.414 16.03,27.08 16.228,27.458 C17.974,26.936 19.216,26.234 20.116,25.388 C21.862,26.414 24.004,27.08 26.488,27.44 C26.704,26.972 27.154,26.288 27.478,25.928 C24.994,25.676 22.816,25.1 21.088,24.2 C21.754,23.21 22.042,22.094 22.186,20.906 L26.74,20.906 Z M37.972,20.492 L37.972,17.828 L42.328,17.828 L42.328,20.492 L37.972,20.492 Z M32.32,20.492 C32.374,19.826 32.392,19.16 32.392,18.548 L32.392,17.828 L36.298,17.828 L36.298,20.492 L32.32,20.492 Z M36.298,13.724 L36.298,16.262 L32.392,16.262 L32.392,13.724 L36.298,13.724 Z M42.328,16.262 L37.972,16.262 L37.972,13.724 L42.328,13.724 L42.328,16.262 Z M44.002,12.122 L30.736,12.122 L30.736,18.53 C30.736,21.068 30.556,24.254 28.594,26.432 C28.972,26.63 29.656,27.206 29.908,27.53 C31.222,26.072 31.87,24.056 32.158,22.076 L36.298,22.076 L36.298,27.224 L37.972,27.224 L37.972,22.076 L42.328,22.076 L42.328,25.298 C42.328,25.64 42.202,25.748 41.878,25.748 C41.536,25.748 40.348,25.766 39.196,25.712 C39.412,26.144 39.682,26.882 39.754,27.332 C41.41,27.35 42.454,27.314 43.12,27.044 C43.768,26.792 44.002,26.288 44.002,25.316 L44.002,12.122 Z M51.274,15.596 L52.966,15.596 L52.966,14.156 L57.142,14.156 L57.142,15.668 L58.852,15.668 L58.852,14.156 L62.866,14.156 L62.866,12.554 L58.852,12.554 L58.852,10.916 L57.142,10.916 L57.142,12.554 L52.966,12.554 L52.966,10.916 L51.274,10.916 L51.274,12.554 L47.134,12.554 L47.134,14.156 L51.274,14.156 L51.274,15.596 Z M51.418,15.884 C50.41,17.972 48.682,20.006 46.882,21.284 C47.296,21.554 47.962,22.13 48.268,22.454 C48.79,22.022 49.33,21.536 49.852,20.96 L49.852,27.422 L51.562,27.422 L51.562,18.89 C52.12,18.098 52.66,17.234 53.074,16.388 L51.418,15.884 Z M58.006,25.532 C57.178,25.532 57.034,25.37 57.034,24.632 L57.034,21.572 C58.996,20.636 60.886,19.628 62.38,18.584 L61.21,17.216 C60.112,18.098 58.636,18.98 57.034,19.844 L57.034,16.046 L55.324,16.046 L55.324,20.726 C54.406,21.176 53.47,21.59 52.552,21.968 C52.804,22.31 53.11,22.85 53.218,23.264 C53.92,22.976 54.622,22.67 55.324,22.364 L55.324,24.632 C55.324,26.576 55.846,27.134 57.808,27.134 L60.832,27.134 C62.614,27.134 63.082,26.288 63.298,23.516 C62.812,23.39 62.11,23.12 61.714,22.814 C61.624,25.082 61.48,25.532 60.724,25.532 L58.006,25.532 Z M75.844,13.22 L75.844,14.588 L81.046,14.588 L81.046,13.22 L79.444,13.22 C79.228,12.554 78.868,11.69 78.526,11.006 L77.176,11.366 C77.446,11.924 77.716,12.626 77.932,13.22 L75.844,13.22 Z M77.986,17.666 C77.95,16.856 77.716,15.668 77.392,14.75 L76.258,15.038 C76.582,15.974 76.798,17.198 76.816,17.972 L77.986,17.666 Z M69.958,13.22 L68.356,13.22 C68.122,12.554 67.762,11.726 67.402,11.042 L66.052,11.42 C66.322,11.96 66.61,12.644 66.808,13.22 L64.918,13.22 L64.918,14.588 L69.958,14.588 L69.958,13.22 Z M67.006,17.648 C66.988,16.874 66.772,15.704 66.466,14.822 L65.332,15.092 C65.638,16.01 65.836,17.198 65.818,17.954 L67.006,17.648 Z M69.796,22.544 L69.796,21.176 L68.23,21.176 L68.23,19.394 L70.012,19.394 L70.012,18.026 L68.77,18.026 C69.058,17.144 69.364,16.01 69.634,15.02 L68.356,14.75 C68.23,15.704 67.906,17.09 67.636,18.026 L64.792,18.026 L64.792,19.394 L66.754,19.394 L66.754,21.176 L64.99,21.176 L64.99,22.544 L66.736,22.544 C66.646,23.876 66.286,25.442 64.954,26.396 C65.296,26.63 65.746,27.152 65.962,27.458 C67.564,26.18 68.086,24.236 68.194,22.544 L69.796,22.544 Z M74.872,11.006 C73.828,11.528 72.028,12.086 70.426,12.41 L70.408,12.41 L70.408,15.812 C70.408,18.8 70.282,23.3 68.968,26.594 C69.238,26.702 69.778,27.062 69.976,27.296 C71.362,23.84 71.578,18.926 71.578,15.812 L71.578,13.346 C71.83,13.292 72.082,13.238 72.334,13.202 L72.334,15.776 C72.334,18.782 72.334,22.958 70.84,25.982 C71.074,26.162 71.578,26.612 71.74,26.864 C71.956,26.684 72.334,26.504 74.044,26.036 C74.098,26.414 74.134,26.738 74.17,27.044 L75.07,26.846 C74.944,25.622 74.584,23.822 74.242,22.4 L73.378,22.58 C73.54,23.246 73.702,24.002 73.828,24.758 L72.442,25.082 C73.414,21.986 73.45,18.386 73.45,15.776 L73.45,12.914 C73.684,12.86 73.882,12.788 74.116,12.716 C74.242,18.836 74.53,24.362 75.916,27.404 C76.132,27.062 76.564,26.63 76.852,26.414 C75.538,23.768 75.268,18.17 75.16,12.374 C75.466,12.284 75.754,12.176 76.042,12.05 L74.872,11.006 Z M81.298,19.412 L81.298,18.044 L79.948,18.044 C80.218,17.144 80.524,15.974 80.776,14.966 L79.48,14.696 C79.354,15.668 79.03,17.09 78.76,18.044 L75.772,18.044 L75.772,19.412 L77.698,19.412 L77.698,21.536 L76.114,21.536 L76.114,22.904 L77.698,22.904 L77.698,27.422 L79.21,27.422 L79.21,22.904 L81.064,22.904 L81.064,21.536 L79.21,21.536 L79.21,19.412 L81.298,19.412 Z M96.724,11.042 C93.556,11.654 88.174,12.068 83.566,12.248 C83.728,12.644 83.944,13.364 83.998,13.814 C88.66,13.652 94.168,13.256 98.074,12.572 L96.724,11.042 Z M95.014,18.656 C95.896,17.54 96.994,15.812 97.858,14.282 L96.166,13.616 C95.572,15.002 94.492,16.874 93.628,18.008 L95.014,18.656 Z M92.026,17.018 C91.882,16.136 91.378,14.84 90.82,13.832 L89.29,14.318 C89.812,15.362 90.28,16.73 90.388,17.576 L92.026,17.018 Z M87.724,17.666 C87.454,16.748 86.716,15.416 85.96,14.426 L84.538,15.02 C85.258,16.046 85.978,17.414 86.194,18.314 L87.724,17.666 Z M98.902,20.852 L98.902,19.214 L91.828,19.214 L91.828,17.648 L90.064,17.648 L90.064,19.214 L83.116,19.214 L83.116,20.852 L88.84,20.852 C87.256,22.706 84.88,24.416 82.612,25.316 C83.026,25.694 83.566,26.36 83.854,26.81 C86.068,25.748 88.372,23.93 90.064,21.878 L90.064,27.386 L91.828,27.386 L91.828,21.788 C93.556,23.858 95.896,25.694 98.128,26.756 C98.416,26.324 98.974,25.64 99.37,25.28 C97.12,24.362 94.708,22.67 93.088,20.852 L98.902,20.852 Z M108.748,15.056 L104.734,15.056 L104.734,14.048 L108.748,14.048 L108.748,15.056 Z M108.748,17.162 L104.734,17.162 L104.734,16.19 L108.748,16.19 L108.748,17.162 Z M108.748,19.34 L104.734,19.34 L104.734,18.314 L108.748,18.314 L108.748,19.34 Z M103.078,21.176 L104.734,21.176 L104.734,20.654 L116.506,20.654 L116.506,19.34 L110.35,19.34 L110.35,18.314 L115.264,18.314 L115.264,17.162 L110.35,17.162 L110.35,16.19 L115.228,16.19 L115.228,15.056 L110.35,15.056 L110.35,14.048 L116.002,14.048 L116.002,12.734 L110.818,12.734 C110.62,12.158 110.242,11.42 109.9,10.844 L108.388,11.276 C108.64,11.708 108.892,12.266 109.072,12.734 L105.544,12.734 C105.904,12.23 106.21,11.708 106.498,11.204 L104.77,10.88 C103.978,12.428 102.556,14.354 100.576,15.812 C100.954,16.046 101.494,16.55 101.764,16.91 C102.232,16.532 102.664,16.154 103.078,15.74 L103.078,21.176 Z M116.974,23.264 L116.974,21.914 L109.792,21.914 L109.792,20.816 L108.136,20.816 L108.136,21.914 L101.008,21.914 L101.008,23.264 L106.714,23.264 C105.022,24.398 102.628,25.37 100.522,25.874 C100.864,26.216 101.35,26.846 101.62,27.242 C103.798,26.594 106.318,25.352 108.136,23.894 L108.136,27.386 L109.792,27.386 L109.792,23.858 C111.592,25.28 114.112,26.486 116.344,27.152 C116.56,26.738 117.028,26.126 117.37,25.784 C115.3,25.298 112.942,24.362 111.268,23.264 L116.974,23.264 Z M127.882,24.434 L127.882,14.57 L134.146,14.57 L134.146,12.842 L119.926,12.842 L119.926,14.57 L126.01,14.57 L126.01,24.434 L118.972,24.434 L118.972,26.108 L135.082,26.108 L135.082,24.434 L127.882,24.434 Z M141.256,20.654 L148.888,20.654 L148.888,22.022 L141.256,22.022 L141.256,20.654 Z M148.888,13.112 L148.888,14.39 L141.256,14.39 L141.256,13.112 L148.888,13.112 Z M148.888,18.116 L148.888,19.412 L141.256,19.412 L141.256,18.116 L148.888,18.116 Z M148.888,16.874 L141.256,16.874 L141.256,15.614 L148.888,15.614 L148.888,16.874 Z M153.1,23.534 L153.1,22.022 L150.634,22.022 L150.634,11.762 L139.582,11.762 L139.582,22.022 L136.972,22.022 L136.972,23.534 L141.796,23.534 C140.698,24.47 138.52,25.568 136.72,26.162 C137.116,26.504 137.656,27.044 137.926,27.386 C139.744,26.72 141.94,25.586 143.326,24.506 L141.886,23.534 L147.646,23.534 L146.692,24.578 C148.636,25.442 150.688,26.576 151.912,27.386 L153.208,26.162 C151.966,25.406 149.878,24.344 147.952,23.534 L153.1,23.534 Z M157.114,28.16 C159.166,27.512 160.426,25.946 160.426,23.966 C160.426,22.598 159.832,21.716 158.698,21.716 C157.87,21.716 157.168,22.238 157.168,23.156 C157.168,24.074 157.87,24.578 158.68,24.578 C158.77,24.578 158.86,24.578 158.932,24.56 C158.842,25.658 158.032,26.486 156.646,26.99 L157.114,28.16 Z M14.608,37.988 C13.636,40.616 12.034,43.244 10.342,44.918 C10.612,45.296 11.098,46.196 11.26,46.61 C11.782,46.052 12.304,45.422 12.808,44.72 L12.808,54.404 L14.392,54.404 L14.392,42.236 C15.076,41.012 15.688,39.734 16.174,38.456 L14.608,37.988 Z M17.884,45.692 C17.434,47.762 16.624,49.832 15.562,51.164 C15.94,51.362 16.678,51.794 16.984,52.064 C18.046,50.588 18.982,48.32 19.522,45.998 L17.884,45.692 Z M25.408,42.794 C25.3,43.658 25.174,44.504 25.048,45.116 L26.47,45.386 C26.704,44.378 27.028,42.794 27.262,41.426 L26.092,41.192 L25.822,41.246 L19.018,41.246 C19.378,40.31 19.684,39.338 19.936,38.348 L18.28,37.988 C17.668,40.526 16.642,43.064 15.292,44.648 C15.688,44.9 16.354,45.44 16.66,45.746 C17.272,44.936 17.848,43.928 18.388,42.794 L20.818,42.794 L20.818,52.478 C20.818,52.712 20.728,52.766 20.494,52.766 C20.26,52.784 19.486,52.784 18.676,52.766 C18.928,53.216 19.198,53.972 19.27,54.44 C20.404,54.44 21.214,54.386 21.754,54.116 C22.294,53.828 22.474,53.342 22.474,52.478 L22.474,42.794 L25.408,42.794 Z M23.482,46.016 C24.418,47.888 25.246,50.39 25.498,52.01 L27.1,51.434 C26.812,49.814 25.966,47.402 24.976,45.53 L23.482,46.016 Z M36.55,44.756 L36.55,48.356 L32.41,48.356 L32.41,44.756 L36.55,44.756 Z M38.206,49.94 L38.206,43.172 L30.79,43.172 L30.79,51.344 L32.41,51.344 L32.41,49.94 L38.206,49.94 Z M45.01,39.14 L29.026,39.14 L29.026,40.814 L41.122,40.814 L41.122,52.154 C41.122,52.532 40.996,52.64 40.6,52.658 C40.168,52.658 38.674,52.676 37.306,52.604 C37.576,53.09 37.918,53.918 38.008,54.404 C39.808,54.404 41.068,54.386 41.842,54.08 C42.598,53.828 42.868,53.27 42.868,52.19 L42.868,40.814 L45.01,40.814 L45.01,39.14 Z M56.782,43.766 C56.26,42.614 55.126,40.922 54.064,39.644 L52.642,40.418 C53.668,41.732 54.784,43.514 55.27,44.666 L56.782,43.766 Z M50.644,49.58 L50.644,39.212 L48.826,39.212 L48.826,49.634 C48.826,50.516 48.07,51.146 47.638,51.434 C47.926,51.722 48.394,52.388 48.556,52.784 C49.042,52.316 49.762,51.884 54.892,49.31 C54.748,48.932 54.55,48.212 54.46,47.744 L50.644,49.58 Z M63.424,53.252 C62.596,52.028 60.868,50.228 59.392,48.788 C60.562,46.214 61.048,42.92 61.282,38.708 L59.5,38.636 C59.158,46.394 57.898,50.822 52.318,53.072 C52.714,53.396 53.38,54.17 53.596,54.53 C55.846,53.468 57.448,52.1 58.582,50.318 C59.914,51.686 61.264,53.27 61.93,54.368 L63.424,53.252 Z M80.866,42.524 L80.866,40.886 L73.468,40.886 L74.674,40.364 C74.422,39.644 73.864,38.564 73.396,37.754 L71.758,38.366 C72.172,39.14 72.658,40.166 72.892,40.886 L65.188,40.886 L65.188,42.524 L69.904,42.524 C69.724,46.484 69.31,50.858 64.846,53.126 C65.296,53.468 65.818,54.044 66.07,54.494 C69.4,52.694 70.714,49.796 71.29,46.7 L77.356,46.7 C77.068,50.372 76.744,52.046 76.24,52.46 C76.006,52.64 75.772,52.676 75.376,52.676 C74.872,52.676 73.648,52.658 72.37,52.55 C72.712,53.018 72.946,53.702 72.964,54.188 C74.17,54.26 75.34,54.278 76.006,54.224 C76.762,54.152 77.23,54.008 77.716,53.522 C78.436,52.784 78.778,50.804 79.12,45.836 C79.174,45.602 79.192,45.08 79.192,45.08 L71.542,45.08 C71.65,44.234 71.704,43.37 71.758,42.524 L80.866,42.524 Z M86.5,37.97 C85.636,40.58 84.196,43.226 82.63,44.918 C82.936,45.296 83.422,46.196 83.566,46.592 C83.998,46.124 84.394,45.602 84.808,45.026 L84.808,54.404 L86.392,54.404 L86.392,42.362 C87.04,41.084 87.634,39.752 88.084,38.438 L86.5,37.97 Z M89.938,47.366 L89.938,45.746 L92.656,45.746 L92.656,46.52 C92.656,46.79 92.656,47.096 92.638,47.366 L89.938,47.366 Z M89.938,42.938 L92.656,42.938 L92.656,44.558 L89.938,44.558 L89.938,42.938 Z M96.814,42.938 L96.814,44.558 L94.312,44.558 L94.312,42.938 L96.814,42.938 Z M96.814,47.366 L94.294,47.366 C94.312,47.096 94.312,46.808 94.312,46.538 L94.312,45.746 L96.814,45.746 L96.814,47.366 Z M98.452,48.626 L98.452,41.678 L94.312,41.678 L94.312,40.346 L98.974,40.346 L98.974,38.888 L88.012,38.888 L88.012,40.346 L92.656,40.346 L92.656,41.678 L88.39,41.678 L88.39,48.626 L92.494,48.626 C92.332,49.418 92.044,50.174 91.432,50.858 C90.532,50.336 89.812,49.742 89.29,49.004 L87.832,49.508 C88.462,50.444 89.272,51.218 90.226,51.866 C89.416,52.352 88.336,52.784 86.896,53.108 C87.238,53.414 87.724,54.08 87.922,54.476 C89.542,53.99 90.784,53.396 91.702,52.694 C93.574,53.576 95.842,54.08 98.47,54.314 C98.686,53.846 99.1,53.144 99.478,52.766 C96.94,52.604 94.69,52.226 92.89,51.524 C93.574,50.642 93.952,49.67 94.132,48.626 L98.452,48.626 Z M104.554,43.712 L106.552,43.712 L106.552,42.128 L104.554,42.128 L104.554,38.132 L102.988,38.132 L102.988,42.128 L100.774,42.128 L100.774,43.712 L102.988,43.712 L102.988,49.13 C102.088,49.49 101.26,49.814 100.612,50.048 L101.26,51.722 C102.862,51.02 104.914,50.084 106.804,49.166 L106.426,47.69 C105.814,47.942 105.166,48.212 104.554,48.482 L104.554,43.712 Z M110.62,52.55 C109.468,52.55 109.27,52.352 109.27,51.344 L109.27,45.44 L111.286,44.576 L111.286,50.372 L112.852,50.372 L112.852,43.91 L114.94,43.01 C114.94,45.764 114.904,47.438 114.832,47.78 C114.76,48.158 114.598,48.23 114.364,48.23 C114.184,48.23 113.698,48.23 113.32,48.212 C113.5,48.572 113.644,49.202 113.698,49.634 C114.22,49.634 114.94,49.616 115.426,49.436 C115.984,49.292 116.29,48.896 116.38,48.14 C116.488,47.438 116.524,44.99 116.524,41.624 L116.596,41.336 L115.426,40.886 L115.138,41.12 L114.814,41.372 L112.852,42.2 L112.852,37.916 L111.286,37.916 L111.286,42.866 L109.27,43.712 L109.27,39.608 L107.686,39.608 L107.686,44.378 L105.814,45.17 L106.444,46.664 L107.686,46.124 L107.686,51.326 C107.686,53.486 108.316,54.044 110.53,54.044 L114.652,54.044 C116.614,54.044 117.118,53.234 117.352,50.75 C116.902,50.66 116.254,50.39 115.876,50.12 C115.732,52.082 115.552,52.55 114.562,52.55 L110.62,52.55 Z M122.86,37.952 C121.87,40.598 120.214,43.19 118.468,44.846 C118.774,45.242 119.242,46.142 119.404,46.538 C119.962,45.962 120.538,45.278 121.078,44.54 L121.078,54.386 L122.662,54.386 L122.662,42.11 C123.328,40.922 123.922,39.698 124.426,38.456 L122.86,37.952 Z M126.478,40.202 L132.544,40.202 L132.544,43.1 L126.478,43.1 L126.478,40.202 Z M135.154,48.068 L135.154,46.556 L130.294,46.556 L130.294,44.594 L134.218,44.594 L134.218,38.726 L124.912,38.726 L124.912,44.594 L128.62,44.594 L128.62,46.556 L123.652,46.556 L123.652,48.068 L127.738,48.068 C126.568,49.832 124.804,51.47 123.076,52.352 C123.454,52.676 123.958,53.27 124.228,53.684 C125.83,52.73 127.414,51.128 128.62,49.328 L128.62,54.44 L130.294,54.44 L130.294,49.238 C131.428,51.038 132.958,52.712 134.47,53.72 C134.722,53.306 135.28,52.712 135.64,52.388 C134.002,51.47 132.292,49.814 131.194,48.068 L135.154,48.068 Z M152.866,41.84 L152.866,40.238 L143.92,40.238 C144.136,39.608 144.37,38.942 144.568,38.312 L142.84,37.898 C142.624,38.672 142.372,39.464 142.084,40.238 L137.152,40.238 L137.152,41.84 L141.382,41.84 C140.248,44.162 138.646,46.322 136.558,47.726 C136.828,48.122 137.206,48.842 137.386,49.292 C138.07,48.824 138.718,48.284 139.312,47.69 L139.312,54.404 L141.004,54.404 L141.004,45.71 C141.886,44.522 142.624,43.19 143.236,41.84 L152.866,41.84 Z M153.172,48.122 L148.636,48.122 L148.636,47.24 C149.896,46.43 151.192,45.35 152.128,44.324 L151.066,43.478 L150.724,43.568 L143.632,43.568 L143.632,45.08 L149.176,45.08 C148.492,45.692 147.682,46.322 146.944,46.754 L146.944,48.122 L142.174,48.122 L142.174,49.688 L146.944,49.688 L146.944,52.532 C146.944,52.766 146.872,52.838 146.548,52.856 C146.26,52.874 145.198,52.874 144.136,52.82 C144.352,53.288 144.568,53.954 144.64,54.422 C146.116,54.44 147.142,54.422 147.79,54.17 C148.456,53.936 148.636,53.468 148.636,52.568 L148.636,49.688 L153.172,49.688 L153.172,48.122 Z M159.13,37.952 C158.068,40.652 156.304,43.334 154.432,45.044 C154.756,45.458 155.278,46.358 155.44,46.754 C156.052,46.16 156.682,45.44 157.276,44.666 L157.276,54.404 L158.932,54.404 L158.932,42.2 C159.634,40.994 160.264,39.716 160.768,38.456 L159.13,37.952 Z M171.226,47.06 L171.226,45.44 L166.42,45.44 L166.42,40.742 C167.95,40.436 169.426,40.076 170.614,39.68 L169.39,38.258 C167.176,39.068 163.45,39.77 160.174,40.184 C160.372,40.58 160.606,41.21 160.678,41.606 C161.974,41.462 163.36,41.282 164.728,41.048 L164.728,45.44 L159.634,45.44 L159.634,47.06 L164.728,47.06 L164.728,52.154 L160.318,52.154 L160.318,53.756 L170.974,53.756 L170.974,52.154 L166.42,52.154 L166.42,47.06 L171.226,47.06 Z M183.628,40.4 C183.466,40.868 183.196,41.462 182.944,41.966 L179.02,41.966 C178.894,41.498 178.624,40.886 178.336,40.4 L183.628,40.4 Z M188.722,41.966 L184.654,41.966 C184.888,41.57 185.122,41.138 185.392,40.652 L184.168,40.4 L187.786,40.4 L187.786,39.086 L182.134,39.086 C181.954,38.636 181.702,38.132 181.45,37.736 L179.83,38.042 C180.01,38.366 180.154,38.726 180.298,39.086 L174.16,39.086 L174.16,40.4 L177.994,40.4 L176.788,40.67 C176.986,41.066 177.184,41.534 177.31,41.966 L173.332,41.966 L173.332,43.298 L188.722,43.298 L188.722,41.966 Z M185.05,46.214 L176.986,46.214 L176.986,45.188 L185.05,45.188 L185.05,46.214 Z M185.05,48.284 L176.986,48.284 L176.986,47.258 L185.05,47.258 L185.05,48.284 Z M186.706,44.072 L175.402,44.072 L175.402,49.382 L179.92,49.382 L179.236,50.012 C180.226,50.552 181.468,51.362 182.044,51.938 L183.07,50.894 C182.566,50.426 181.648,49.832 180.784,49.382 L186.706,49.382 L186.706,44.072 Z M174.394,53.972 C175.312,53.126 176.05,51.794 176.572,50.678 L175.186,50.066 C174.718,51.128 173.926,52.37 173.026,53.162 L174.394,53.972 Z M179.974,52.892 C179.092,52.892 178.93,52.82 178.93,52.37 L178.93,50.246 L177.31,50.246 L177.31,52.388 C177.31,53.864 177.796,54.26 179.812,54.26 L182.98,54.26 C184.528,54.26 184.978,53.774 185.176,51.776 C184.744,51.686 184.096,51.452 183.736,51.236 C183.664,52.694 183.538,52.892 182.836,52.892 L179.974,52.892 Z M185.176,50.498 C186.058,51.47 186.994,52.82 187.372,53.702 L188.812,53.036 C188.38,52.136 187.408,50.84 186.508,49.886 L185.176,50.498 Z M204.346,49.58 C203.95,48.698 203.32,47.618 202.564,46.52 C202.996,45.062 203.32,43.478 203.554,41.75 L202.06,41.588 C201.898,42.776 201.7,43.91 201.448,44.972 C200.854,44.198 200.242,43.442 199.63,42.776 L198.604,43.676 C199.396,44.594 200.206,45.656 200.926,46.718 C200.278,48.662 199.342,50.3 198.064,51.47 C198.424,51.686 199.09,52.172 199.36,52.388 C200.44,51.308 201.286,49.904 201.934,48.266 C202.474,49.13 202.906,49.94 203.212,50.624 L204.346,49.58 Z M206.452,38.942 L191.584,38.942 L191.584,54.386 L193.258,54.386 L193.258,51.38 C193.636,51.614 194.23,52.028 194.482,52.244 C195.49,51.164 196.318,49.778 196.948,48.176 C197.434,48.896 197.866,49.562 198.172,50.138 L199.234,48.986 C198.82,48.284 198.208,47.42 197.542,46.502 C197.992,45.044 198.316,43.442 198.586,41.714 L197.092,41.552 C196.93,42.776 196.696,43.946 196.408,45.044 C195.778,44.234 195.112,43.424 194.482,42.704 L193.51,43.676 C194.284,44.594 195.13,45.674 195.922,46.718 C195.292,48.554 194.428,50.102 193.258,51.254 L193.258,40.526 L204.778,40.526 L204.778,52.28 C204.778,52.622 204.652,52.73 204.31,52.748 C203.95,52.766 202.708,52.784 201.574,52.712 C201.808,53.144 202.096,53.918 202.204,54.386 C203.842,54.386 204.886,54.35 205.552,54.08 C206.2,53.81 206.452,53.306 206.452,52.298 L206.452,38.942 Z M213.778,40.616 C213.562,39.896 213.058,38.816 212.554,38.006 L211.114,38.42 C211.564,39.266 212.068,40.4 212.266,41.12 L213.778,40.616 Z M214.084,49.904 C214.534,48.122 215.002,45.584 215.344,43.532 L213.778,43.262 C213.58,45.386 213.13,48.392 212.68,50.228 C211.258,50.57 209.926,50.84 208.9,51.056 L209.26,52.712 C211.132,52.262 213.634,51.632 215.956,51.056 L215.794,49.508 L214.084,49.904 Z M209.728,43.694 C210.106,45.656 210.448,48.194 210.52,49.886 L211.906,49.616 C211.798,47.906 211.456,45.422 211.042,43.442 L209.728,43.694 Z M209.08,42.704 L216.082,42.704 L216.082,41.156 L209.08,41.156 L209.08,42.704 Z M222.85,51.992 L217.972,51.992 L217.972,47.924 L222.85,47.924 L222.85,51.992 Z M225.244,43.01 L225.244,41.408 L220.888,41.408 L220.888,37.88 L219.178,37.88 L219.178,46.358 L216.352,46.358 L216.352,54.386 L217.972,54.386 L217.972,53.558 L222.85,53.558 L222.85,54.314 L224.542,54.314 L224.542,46.358 L220.888,46.358 L220.888,43.01 L225.244,43.01 Z M235.306,51.866 L235.306,45.17 L241.858,45.17 L241.858,43.496 L235.306,43.496 L235.306,38.15 L233.524,38.15 L233.524,51.866 L226.954,51.866 L226.954,53.54 L243.01,53.54 L243.01,51.866 L235.306,51.866 Z M247.078,51.092 L247.078,47.114 L250.426,47.114 L250.426,51.092 L247.078,51.092 Z M250.426,42.236 L250.426,45.656 L247.078,45.656 L247.078,42.236 L250.426,42.236 Z M255.52,40.688 C255.808,39.896 256.042,39.068 256.258,38.24 L254.638,37.862 C254.098,40.238 253.144,42.632 251.956,44.18 L251.956,40.778 L249.076,40.778 C249.364,40.022 249.706,39.068 250.012,38.168 L248.194,37.862 C248.086,38.726 247.816,39.914 247.564,40.778 L245.548,40.778 L245.548,53.936 L247.078,53.936 L247.078,52.568 L251.956,52.568 L251.956,44.306 C252.37,44.54 253,44.99 253.27,45.242 C253.846,44.414 254.404,43.37 254.908,42.218 L259.156,42.218 C258.922,49.004 258.688,51.722 258.112,52.316 C257.914,52.568 257.716,52.622 257.356,52.622 C256.906,52.622 255.862,52.604 254.71,52.514 C255.016,52.982 255.214,53.684 255.25,54.134 C256.276,54.188 257.338,54.206 257.968,54.134 C258.652,54.044 259.084,53.882 259.534,53.288 C260.254,52.388 260.47,49.598 260.722,41.48 C260.74,41.264 260.74,40.688 260.74,40.688 L255.52,40.688 Z M257.824,48.806 C257.284,47.744 256.06,46.034 255.106,44.792 L253.792,45.53 C254.746,46.826 255.916,48.59 256.42,49.688 L257.824,48.806 Z M266.932,50.318 C269.398,50.624 272.476,51.326 274.186,51.938 L274.924,50.732 C273.142,50.156 270.118,49.472 267.706,49.22 L266.932,50.318 Z M268.642,48.05 C270.1,48.374 271.954,48.986 272.962,49.472 L273.664,48.41 C272.62,47.942 270.784,47.366 269.344,47.078 L268.642,48.05 Z M268.984,43.028 L273.268,43.028 C272.656,43.586 271.918,44.108 271.072,44.576 C270.244,44.126 269.542,43.586 268.984,43.028 L268.984,43.028 Z M274.672,41.678 L274.438,41.75 L270.118,41.75 C270.37,41.444 270.586,41.138 270.784,40.814 L269.416,40.346 C268.534,41.732 267.022,43.082 265.528,43.964 C265.852,44.198 266.392,44.684 266.644,44.972 C267.112,44.666 267.58,44.288 268.048,43.892 C268.534,44.378 269.092,44.828 269.722,45.242 C268.264,45.872 266.698,46.34 265.204,46.628 C265.51,46.934 265.834,47.6 265.996,47.996 C267.706,47.6 269.506,46.952 271.126,46.088 C272.566,46.844 274.186,47.42 275.806,47.762 C276.004,47.384 276.418,46.808 276.742,46.52 C275.284,46.25 273.826,45.836 272.494,45.26 C273.79,44.414 274.87,43.424 275.608,42.254 L274.672,41.678 Z M265.114,52.244 L265.114,40.166 L276.832,40.166 L276.832,52.244 L265.114,52.244 Z M263.512,38.654 L263.512,54.422 L265.114,54.422 L265.114,53.72 L276.832,53.72 L276.832,54.422 L278.506,54.422 L278.506,38.654 L263.512,38.654 Z M284.914,44.162 L296.146,44.162 L296.146,42.434 L291.466,42.434 L291.466,37.916 L289.684,37.916 L289.684,42.434 L284.914,42.434 L284.914,38.33 L283.168,38.33 L283.168,44.306 C283.168,47.366 282.916,50.678 280.684,53.144 C281.08,53.414 281.71,54.08 281.98,54.476 C283.6,52.748 284.338,50.678 284.644,48.5 L291.844,48.5 L291.844,54.422 L293.68,54.422 L293.68,46.754 L284.842,46.754 C284.896,45.944 284.914,45.116 284.914,44.306 L284.914,44.162 Z M304.3,52.802 C303.274,51.56 301.6,49.868 300.322,48.824 L298.846,50.12 C300.106,51.182 301.636,52.712 302.77,54.098 L304.3,52.802 Z M325.594,40.202 L330.742,40.202 L330.742,48.212 L332.416,48.212 L332.416,38.744 L323.974,38.744 L323.974,48.212 L325.594,48.212 L325.594,40.202 Z M323.434,47.888 C323.11,47.51 321.94,46.142 321.256,45.404 C322.066,44.18 322.768,42.848 323.236,41.462 L322.354,40.868 L322.03,40.94 L320.41,40.94 L321.634,40.184 C321.31,39.536 320.626,38.618 319.96,37.952 L318.682,38.69 C319.258,39.338 319.906,40.292 320.23,40.94 L317.152,40.94 L317.152,42.452 L321.238,42.452 C320.212,44.63 318.466,46.7 316.72,47.87 C316.954,48.212 317.296,49.094 317.422,49.562 C318.034,49.112 318.682,48.554 319.276,47.906 L319.276,54.422 L320.878,54.422 L320.878,47.042 C321.436,47.798 322.048,48.662 322.372,49.22 L323.434,47.888 Z M330.112,52.928 C329.68,52.928 329.536,52.784 329.536,52.298 L329.536,48.032 L328.51,48.032 C328.816,46.862 328.906,45.692 328.906,44.666 L328.906,41.408 L327.304,41.408 L327.304,44.63 C327.304,47.402 326.8,50.858 322.282,53.198 C322.606,53.45 323.164,54.098 323.362,54.44 C325.792,53.144 327.196,51.434 327.988,49.634 L327.988,52.478 C327.988,53.792 328.51,54.17 329.824,54.17 L331.282,54.17 C332.938,54.17 333.154,53.396 333.334,50.606 C332.938,50.498 332.398,50.282 332.002,49.976 C331.948,52.424 331.84,52.928 331.3,52.928 L330.112,52.928 Z M343.702,42.128 L343.702,50.534 L345.106,50.534 L345.106,43.388 L349.138,43.388 L349.138,50.48 L350.614,50.48 L350.614,42.128 L347.482,42.128 C347.68,41.606 347.914,40.976 348.148,40.382 L351.064,40.382 L351.064,38.924 L343.27,38.924 L343.27,40.382 L346.582,40.382 C346.402,40.958 346.168,41.606 345.952,42.128 L343.702,42.128 Z M341.542,46.034 C341.182,47.582 340.624,48.86 339.85,49.922 L339.85,44.81 L343.054,44.81 L343.054,43.334 L340.174,43.334 L340.174,41.354 L342.64,41.354 L342.64,39.986 L340.174,39.986 L340.174,37.88 L338.698,37.88 L338.698,43.334 L337.294,43.334 L337.294,39.446 L335.962,39.446 L335.962,43.334 L334.72,43.334 L334.72,44.81 L338.32,44.81 L338.32,50.228 L339.616,50.228 C338.5,51.614 336.934,52.586 334.81,53.198 C335.152,53.522 335.512,54.08 335.656,54.494 C339.814,53.09 342.01,50.606 343,46.34 L341.542,46.034 Z M336.268,45.818 C335.926,47.114 335.368,48.428 334.648,49.328 C334.99,49.508 335.584,49.886 335.854,50.102 C336.592,49.13 337.258,47.582 337.654,46.124 L336.268,45.818 Z M346.456,44.18 C346.438,50.264 346.294,52.208 342.064,53.324 C342.334,53.594 342.712,54.152 342.838,54.512 C347.5,53.198 347.806,50.714 347.842,44.18 L346.456,44.18 Z M346.996,51.56 C348.184,52.442 349.678,53.684 350.398,54.476 L351.388,53.432 C350.632,52.658 349.084,51.47 347.932,50.642 L346.996,51.56 Z M357.976,40.166 C359.02,39.968 360.01,39.698 360.856,39.374 L359.74,38.078 C358.138,38.708 355.42,39.266 353.062,39.59 C353.242,39.968 353.458,40.526 353.53,40.886 C354.412,40.778 355.366,40.67 356.302,40.508 L356.302,43.19 L352.954,43.19 L352.954,44.738 L355.888,44.738 C355.132,46.862 353.836,49.166 352.522,50.48 C352.828,50.912 353.224,51.56 353.404,52.028 C354.466,50.894 355.492,49.058 356.302,47.15 L356.302,54.386 L357.976,54.386 L357.976,47.06 C358.678,48.014 359.506,49.166 359.866,49.814 L360.874,48.446 C360.46,47.906 358.678,45.854 357.976,45.152 L357.976,44.738 L360.874,44.738 L360.874,43.19 L357.976,43.19 L357.976,40.166 Z M363.07,50.534 L363.07,41.174 L366.58,41.174 L366.58,50.534 L363.07,50.534 Z M361.45,39.572 L361.45,53.594 L363.07,53.594 L363.07,52.136 L366.58,52.136 L366.58,53.468 L368.29,53.468 L368.29,39.572 L361.45,39.572 Z M386.632,40.742 C386.146,40.004 385.048,38.978 384.112,38.24 L382.924,39.05 C383.86,39.806 384.922,40.922 385.39,41.66 L386.632,40.742 Z M373.87,50.84 L376.102,50.84 L376.102,51.884 L373.87,51.884 L373.87,50.84 Z M376.102,47.69 L373.87,47.69 L373.87,46.718 L376.102,46.718 L376.102,47.69 Z M376.102,49.778 L373.87,49.778 L373.87,48.734 L376.102,48.734 L376.102,49.778 Z M384.742,44.504 C384.328,45.998 383.752,47.384 383.032,48.662 C382.726,47.24 382.51,45.512 382.366,43.568 L387.046,43.568 L387.046,42.164 L382.276,42.164 C382.204,40.814 382.186,39.392 382.204,37.934 L380.548,37.934 C380.548,39.374 380.584,40.796 380.656,42.164 L376.534,42.164 L376.534,40.796 L379.558,40.796 L379.558,39.428 L376.534,39.428 L376.534,37.916 L374.896,37.916 L374.896,39.428 L371.764,39.428 L371.764,40.796 L374.896,40.796 L374.896,42.164 L370.99,42.164 L370.99,43.568 L380.746,43.568 C380.926,46.25 381.268,48.644 381.826,50.48 C381.232,51.254 380.584,51.938 379.864,52.532 L379.864,51.884 L377.47,51.884 L377.47,50.84 L379.594,50.84 L379.594,49.778 L377.47,49.778 L377.47,48.734 L379.594,48.734 L379.594,47.69 L377.47,47.69 L377.47,46.718 L379.936,46.718 L379.936,45.422 L377.83,45.422 C377.632,44.918 377.218,44.216 376.84,43.712 L375.58,44.198 C375.832,44.558 376.102,45.008 376.3,45.422 L374.176,45.422 C374.428,44.972 374.644,44.522 374.842,44.054 L373.456,43.676 C372.808,45.206 371.782,46.718 370.63,47.708 C370.972,47.924 371.53,48.41 371.782,48.662 C371.98,48.446 372.214,48.212 372.43,47.978 L372.43,54.062 L373.87,54.062 L373.87,53.216 L378.91,53.216 C379.324,53.54 379.81,54.026 380.08,54.404 C380.962,53.756 381.772,53.018 382.492,52.208 C383.14,53.486 383.986,54.242 385.084,54.242 C386.47,54.242 386.974,53.468 387.226,50.732 C386.83,50.57 386.272,50.228 385.93,49.868 C385.822,51.866 385.642,52.622 385.228,52.622 C384.598,52.622 384.058,51.938 383.608,50.732 C384.76,49.04 385.642,47.078 386.308,44.954 L384.742,44.504 Z M392.932,50.318 C395.398,50.624 398.476,51.326 400.186,51.938 L400.924,50.732 C399.142,50.156 396.118,49.472 393.706,49.22 L392.932,50.318 Z M394.642,48.05 C396.1,48.374 397.954,48.986 398.962,49.472 L399.664,48.41 C398.62,47.942 396.784,47.366 395.344,47.078 L394.642,48.05 Z M394.984,43.028 L399.268,43.028 C398.656,43.586 397.918,44.108 397.072,44.576 C396.244,44.126 395.542,43.586 394.984,43.028 L394.984,43.028 Z M400.672,41.678 L400.438,41.75 L396.118,41.75 C396.37,41.444 396.586,41.138 396.784,40.814 L395.416,40.346 C394.534,41.732 393.022,43.082 391.528,43.964 C391.852,44.198 392.392,44.684 392.644,44.972 C393.112,44.666 393.58,44.288 394.048,43.892 C394.534,44.378 395.092,44.828 395.722,45.242 C394.264,45.872 392.698,46.34 391.204,46.628 C391.51,46.934 391.834,47.6 391.996,47.996 C393.706,47.6 395.506,46.952 397.126,46.088 C398.566,46.844 400.186,47.42 401.806,47.762 C402.004,47.384 402.418,46.808 402.742,46.52 C401.284,46.25 399.826,45.836 398.494,45.26 C399.79,44.414 400.87,43.424 401.608,42.254 L400.672,41.678 Z M391.114,52.244 L391.114,40.166 L402.832,40.166 L402.832,52.244 L391.114,52.244 Z M389.512,38.654 L389.512,54.422 L391.114,54.422 L391.114,53.72 L402.832,53.72 L402.832,54.422 L404.506,54.422 L404.506,38.654 L389.512,38.654 Z" id="使用花瓣采集工具，" fill="#FFFFFF" sketch:type="MSShapeGroup"></path>
    </g>
</svg>